<?xml version="1.0" encoding="UTF-8"?>
<!-- This file is generated by npm run build:icons -->
<svg xmlns="http://www.w3.org/2000/svg" xmlns:xlink="http://www.w3.org/1999/xlink" width="0" height="0">
<defs>
<symbol viewBox="0 0 24 24" fill="none" stroke="currentColor" stroke-width="2" stroke-linecap="round" stroke-linejoin="round" class="lucide lucide-check" id="check"><path d="M20 6 9 17l-5-5"></path></symbol>
<symbol viewBox="0 0 24 24" fill="none" stroke="currentColor" stroke-width="2" stroke-linecap="round" stroke-linejoin="round" class="lucide lucide-chevron-down" id="chevron-down">
  <path d="m6 9 6 6 6-6" ></path>
</symbol>
<symbol viewBox="0 0 24 24" fill="none" stroke="currentColor" stroke-width="2" stroke-linecap="round" stroke-linejoin="round" class="lucide lucide-chevron-right" id="chevron-right">
  <path d="m9 18 6-6-6-6" ></path>
</symbol>
<symbol viewBox="0 0 24 24" fill="none" stroke="currentColor" stroke-width="2" stroke-linecap="round" stroke-linejoin="round" class="lucide lucide-chevron-up" id="chevron-up">
  <path d="m18 15-6-6-6 6" ></path>
</symbol>
<symbol viewBox="0 0 24 24" fill="none" stroke="currentColor" stroke-width="2" stroke-linecap="round" stroke-linejoin="round" class="lucide lucide-circle" id="circle">
  <circle cx="12" cy="12" r="10" ></circle>
</symbol>
<symbol viewBox="0 0 24 24" fill="none" stroke="currentColor" stroke-width="2" stroke-linecap="round" stroke-linejoin="round" class="lucide lucide-x" id="close">
  <path d="M18 6 6 18" ></path>
  <path d="m6 6 12 12" ></path>
</symbol>
<symbol viewBox="0 0 24 24" fill="none" stroke="currentColor" stroke-width="2" stroke-linecap="round" stroke-linejoin="round" class="lucide lucide-menu" id="menu">
  <line x1="4" x2="20" y1="12" y2="12" ></line>
  <line x1="4" x2="20" y1="6" y2="6" ></line>
  <line x1="4" x2="20" y1="18" y2="18" ></line>
</symbol>
<symbol viewBox="0 0 24 24" fill="none" stroke="currentColor" stroke-width="2" stroke-linecap="round" stroke-linejoin="round" class="lucide lucide-search" id="search">
  <circle cx="11" cy="11" r="8" ></circle>
  <path d="m21 21-4.3-4.3" ></path>
</symbol>
<symbol viewBox="0 0 24 24" fill="none" stroke="currentColor" stroke-width="2" stroke-linecap="round" stroke-linejoin="round" class="lucide lucide-trash-2" id="trash">
  <path d="M3 6h18" ></path>
  <path d="M19 6v14c0 1-1 2-2 2H7c-1 0-2-1-2-2V6" ></path>
  <path d="M8 6V4c0-1 1-2 2-2h4c1 0 2 1 2 2v2" ></path>
  <line x1="10" x2="10" y1="11" y2="17" ></line>
  <line x1="14" x2="14" y1="11" y2="17" ></line>
</symbol>
<symbol viewBox="0 0 24 24" fill="none" stroke="currentColor" stroke-width="2" stroke-linecap="round" stroke-linejoin="round" class="lucide lucide-triangle-alert" id="triangle-alert">
  <path d="m21.73 18-8-14a2 2 0 0 0-3.48 0l-8 14A2 2 0 0 0 4 21h16a2 2 0 0 0 1.73-3" ></path>
  <path d="M12 9v4" ></path>
  <path d="M12 17h.01" ></path>
</symbol>
<symbol viewBox="0 0 24 24" fill="none" stroke="currentColor" stroke-width="2" stroke-linecap="round" stroke-linejoin="round" class="lucide lucide-user" id="user">
  <path d="M19 21v-2a4 4 0 0 0-4-4H9a4 4 0 0 0-4 4v2" ></path>
  <circle cx="12" cy="7" r="4" ></circle>
</symbol>
</defs>
</svg>
